<svg width="360" height="180" viewBox="0 0 360 180" fill="none" xmlns="http://www.w3.org/2000/svg">
<path d="M73.53 105V73.05H79.74V99.555H96.03V105H73.53Z" fill="white"/>
<path d="M140.67 105.135C138.57 105.135 136.725 104.595 135.135 103.515C133.545 102.435 132.3 100.995 131.4 99.195C130.5 97.365 130.05 95.37 130.05 93.21C130.05 90.93 130.515 88.875 131.445 87.045C132.375 85.185 133.665 83.715 135.315 82.635C136.965 81.555 138.87 81.015 141.03 81.015C142.86 81.015 144.465 81.435 145.845 82.275C147.225 83.085 148.365 84.18 149.265 85.56V81.42H154.53V103.875C154.53 106.215 153.96 108.21 152.82 109.86C151.71 111.54 150.165 112.815 148.185 113.685C146.205 114.585 143.955 115.035 141.435 115.035C138.855 115.035 136.68 114.6 134.91 113.73C133.17 112.89 131.67 111.69 130.41 110.13L133.695 106.935C134.595 108.045 135.72 108.915 137.07 109.545C138.45 110.175 139.905 110.49 141.435 110.49C142.695 110.49 143.85 110.25 144.9 109.77C145.98 109.32 146.85 108.6 147.51 107.61C148.17 106.65 148.5 105.405 148.5 103.875V100.905C147.72 102.255 146.61 103.305 145.17 104.055C143.76 104.775 142.26 105.135 140.67 105.135ZM142.695 100.32C144.015 100.32 145.2 99.93 146.25 99.15C147.33 98.37 148.08 97.44 148.5 96.36V90.735C147.96 89.355 147.105 88.245 145.935 87.405C144.795 86.565 143.595 86.145 142.335 86.145C141.105 86.145 140.025 86.49 139.095 87.18C138.195 87.87 137.49 88.77 136.98 89.88C136.47 90.96 136.215 92.13 136.215 93.39C136.215 94.68 136.5 95.85 137.07 96.9C137.64 97.95 138.405 98.79 139.365 99.42C140.355 100.02 141.465 100.32 142.695 100.32ZM159.966 78.135V72.15H165.996V78.135H159.966ZM159.966 105V81.42H165.996V105H159.966Z" fill="white"/>
<path d="M195.915 78.495H185.7V105H179.535V78.495H169.32V73.05H195.915V78.495ZM211.095 86.64C209.265 86.64 207.63 87 206.19 87.72C204.75 88.41 203.715 89.415 203.085 90.735V105H197.055V81.42H202.59V86.46C203.4 84.84 204.45 83.565 205.74 82.635C207.06 81.705 208.44 81.195 209.88 81.105C210.51 81.105 210.915 81.12 211.095 81.15V86.64ZM212.706 98.025C212.706 96.495 213.126 95.16 213.966 94.02C214.836 92.85 216.036 91.95 217.566 91.32C219.096 90.69 220.851 90.375 222.831 90.375C223.821 90.375 224.826 90.465 225.846 90.645C226.866 90.795 227.751 91.02 228.501 91.32V90.06C228.501 88.56 228.051 87.405 227.151 86.595C226.281 85.785 224.976 85.38 223.236 85.38C221.946 85.38 220.716 85.605 219.546 86.055C218.376 86.505 217.146 87.165 215.856 88.035L213.921 84.075C215.481 83.055 217.071 82.29 218.691 81.78C220.341 81.27 222.066 81.015 223.866 81.015C227.226 81.015 229.836 81.855 231.696 83.535C233.586 85.215 234.531 87.615 234.531 90.735V98.25C234.531 98.91 234.636 99.375 234.846 99.645C235.056 99.885 235.431 100.035 235.971 100.095V105C235.431 105.12 234.936 105.195 234.486 105.225C234.066 105.285 233.706 105.315 233.406 105.315C232.206 105.315 231.291 105.045 230.661 104.505C230.031 103.965 229.656 103.305 229.536 102.525L229.401 101.31C228.351 102.66 227.061 103.695 225.531 104.415C224.031 105.105 222.486 105.45 220.896 105.45C219.306 105.45 217.896 105.135 216.666 104.505C215.436 103.845 214.461 102.96 213.741 101.85C213.051 100.71 212.706 99.435 212.706 98.025ZM227.376 99.24C228.126 98.52 228.501 97.83 228.501 97.17V94.785C226.941 94.155 225.366 93.84 223.776 93.84C222.186 93.84 220.896 94.185 219.906 94.875C218.916 95.535 218.421 96.42 218.421 97.53C218.421 98.43 218.781 99.24 219.501 99.96C220.221 100.68 221.256 101.04 222.606 101.04C223.506 101.04 224.376 100.875 225.216 100.545C226.086 100.215 226.806 99.78 227.376 99.24ZM251.146 105.45C248.596 105.45 246.391 104.88 244.531 103.74C242.671 102.6 241.231 101.1 240.211 99.24C239.191 97.38 238.681 95.37 238.681 93.21C238.681 91.02 239.176 88.995 240.166 87.135C241.186 85.275 242.626 83.79 244.486 82.68C246.346 81.57 248.551 81.015 251.101 81.015C253.681 81.015 255.871 81.57 257.671 82.68C259.501 83.79 260.866 85.245 261.766 87.045L255.871 88.845C254.821 87.045 253.216 86.145 251.056 86.145C249.886 86.145 248.836 86.445 247.906 87.045C246.976 87.615 246.241 88.44 245.701 89.52C245.161 90.57 244.891 91.8 244.891 93.21C244.891 94.59 245.161 95.82 245.701 96.9C246.271 97.95 247.021 98.79 247.951 99.42C248.881 100.02 249.916 100.32 251.056 100.32C252.136 100.32 253.126 100.065 254.026 99.555C254.956 99.015 255.601 98.34 255.961 97.53L261.856 99.33C261.046 101.1 259.696 102.57 257.806 103.74C255.946 104.88 253.726 105.45 251.146 105.45ZM281.676 105L274.791 94.83L271.596 97.98V105H265.566V72.15H271.596V92.04L281.091 81.465H287.481L278.706 91.455L288.111 105H281.676Z" fill="#E53E3E"/>
<path d="M111.723 78.3C104.265 78.3 98.2191 84.7476 98.2191 92.7C98.2191 100.652 104.265 107.1 111.723 107.1C119.18 107.1 125.226 100.652 125.226 92.7C125.226 84.7476 119.18 78.3 111.723 78.3ZM122.488 89.2176C122.422 89.148 122.345 89.088 122.256 89.052C121.966 88.9308 120.737 89.7756 120.552 89.3592C120.43 89.082 120.184 89.5368 119.901 89.3688C119.765 89.2884 119.385 88.7448 119.214 88.8108C118.863 88.9452 119.753 89.9796 119.995 90.1152C120.223 89.9304 120.962 89.5524 121.122 90.0684C121.427 91.0428 120.284 92.1108 119.7 92.6736C118.828 93.516 118.991 92.1288 118.396 91.6416C118.084 91.386 118.087 90.8412 117.771 90.6528C117.63 90.5676 116.983 89.7744 116.99 89.6676L116.971 89.868C116.864 89.9544 116.637 89.544 116.612 89.478C116.612 89.8356 117.158 90.4044 117.339 90.6912C117.646 91.182 117.812 91.8972 118.19 92.298C118.391 92.514 119.164 93.4056 119.366 93.3876L120.402 92.8632C121.132 93.048 118.679 96.7476 118.446 97.206C118.254 97.5912 118.603 98.5404 118.574 98.994C118.542 99.5184 118.154 99.6888 117.787 99.9744C117.393 100.28 117.485 100.877 117.154 101.095C116.568 101.48 116.145 102.734 115.31 102.728C115.064 102.727 114.015 103.165 113.878 102.737C113.771 102.427 113.627 102.191 113.477 101.885C113.329 101.585 113.46 101.273 113.28 101.008C113.156 100.823 112.741 100.405 112.703 100.187C112.7 99.9984 112.835 99.4284 113.021 99.3288C113.281 99.1872 113.071 98.7744 113.039 98.5332C112.985 98.1048 112.735 97.7508 112.437 97.5024C111.995 97.14 112.224 96.852 112.327 96.3336C112.327 96.0864 112.185 95.7624 111.874 95.8584C111.233 96.0576 111.429 95.3244 110.961 95.358C110.624 95.3832 110.35 95.6112 110.037 95.712C109.644 95.8368 109.241 95.6124 108.852 95.5608C107.253 95.346 106.731 93.396 107.148 91.9896C107.19 91.7592 107.019 91.3332 107.094 91.1544C107.273 90.732 107.64 90.252 107.958 89.9292C108.139 89.7468 108.369 89.7936 108.581 89.652C108.907 89.4336 108.912 88.9824 109.231 88.7052C109.686 88.3116 110.307 88.32 110.899 88.2348C111.215 88.1904 112.418 87.9132 112.607 88.1628C112.607 88.2096 112.824 88.896 112.586 88.8564C113.079 88.884 113.78 89.7636 114.247 89.5584C114.486 89.4516 114.399 88.6656 114.891 89.046C115.19 89.274 116.523 89.376 116.8 89.13C116.971 88.98 117.065 88.0032 116.86 87.8928C116.991 88.032 116.164 88.0428 116.088 88.0116C115.95 87.9588 115.823 88.1496 115.604 88.0416C115.735 88.1076 114.871 87.612 115.356 87.2328C115.152 87.3912 114.963 87.1884 114.744 87.3636C114.592 87.4944 114.814 87.5808 114.598 87.696C114.254 87.882 113.996 87.06 113.867 86.9676C113.735 86.8752 112.715 86.112 112.993 86.61L113.89 87.5616C113.845 87.5928 113.655 87.2148 113.655 87.4908C113.714 87.3276 113.677 88.1928 113.537 87.9108C113.474 87.8028 113.639 87.7428 113.543 87.5856C113.543 87.4836 113.284 87.3828 113.234 87.312C113.092 87.1236 112.714 86.7096 112.509 86.61C112.453 86.5812 111.642 86.7156 111.573 86.7432C111.493 86.862 111.425 86.9868 111.369 87.12C111.202 87.186 111.043 87.2724 110.893 87.3792L110.714 87.8064C110.638 87.8796 109.846 88.1592 109.841 88.17C109.875 88.0788 109.287 87.9636 109.327 87.7812C109.37 87.5808 109.569 86.9568 109.517 86.7288C109.463 86.49 110.738 87.0732 110.82 86.4432C110.853 86.1708 110.873 85.8528 110.464 85.806C110.542 85.8156 111.254 85.5072 111.373 85.3692C111.539 85.1664 111.919 84.8328 112.195 84.8328C112.517 84.8328 112.448 84.3324 112.596 84.0864C112.745 84.15 112.516 84.5424 112.695 84.7008C112.684 84.576 113.201 84.7692 113.251 84.7404C113.369 84.6732 114.028 84.7128 113.927 84.3816C113.813 84.0456 113.986 84.1452 114.133 84.0756C114.11 84.0852 114.412 83.526 114.541 83.5284C114.424 83.4216 114.094 83.6628 113.961 83.652C113.614 83.6232 113.762 83.022 113.892 82.8456C113.993 82.7064 113.615 82.536 113.611 82.8024C113.604 83.2008 113.257 83.562 113.337 84.0924C113.46 84.8916 112.501 83.8992 112.419 83.9544C112.101 84.1608 111.84 83.6952 112.005 83.4156C112.173 83.13 112.579 83.1444 112.747 82.8396C112.864 82.6248 113.002 82.3728 113.183 82.2108C113.792 81.666 113.959 82.1016 114.566 82.1604C115.158 82.218 114.766 82.3104 114.684 82.5528C114.606 82.7832 115.01 82.866 115.149 82.6728C115.229 82.5624 115.41 82.2816 115.488 82.074C115.567 81.864 116.138 81.834 116.081 81.636C119.142 83.0136 121.513 85.794 122.488 89.2176V89.2176ZM109.983 84.6828L110.059 84.5784L110.142 84.5556C110.189 84.5148 110.238 84.414 110.311 84.4308C110.36 84.4416 110.476 84.5448 110.436 84.6084C110.395 84.6732 110.362 84.5496 110.345 84.7296C110.325 84.9324 110.134 84.93 109.993 84.996C109.895 85.0404 109.796 84.9744 109.892 84.8712L109.991 84.7416L109.983 84.6828ZM110.48 84.9768C110.532 84.9228 110.636 84.9672 110.65 84.864C110.666 84.7632 110.738 84.6504 110.641 84.462C110.616 84.4116 110.772 84.3636 110.699 84.2976L110.576 84.336C110.576 84.336 110.75 83.5344 110.986 83.8968L110.885 84.0204C111.037 84.1812 111.079 84.5844 111.127 84.8448C111.27 84.924 111.492 84.9384 111.238 85.0752C111.369 85.0512 110.542 85.452 110.433 85.2888C110.352 85.1892 110.79 85.122 110.778 85.0812C110.774 85.068 110.422 85.0572 110.48 84.9768V84.9768ZM112.089 80.7204L111.689 81.1116C111.284 81.4692 110.248 82.1712 109.671 81.9576C109.082 81.7416 107.818 82.758 107.616 82.7652C107.541 82.7688 107.619 81.996 108.021 81.9384C107.863 81.9636 109.139 81.2484 109.355 80.9724C110.118 80.7972 110.909 80.7 111.723 80.7L112.089 80.7204ZM106.366 82.1484C106.445 82.2468 106.679 82.2588 106.337 82.494C106.131 82.626 105.913 83.4648 105.72 83.4648C105.146 83.7324 105.11 82.938 104.472 83.9604C104.385 84.0984 104.028 84.15 103.748 84.2436C104.518 83.418 105.4 82.7088 106.366 82.1484V82.1484ZM100.47 92.7C100.47 92.0508 100.532 91.4184 100.626 90.7968L100.955 91.0188C101.082 91.1808 101.082 91.8816 101.145 92.112C101.301 92.6904 101.689 93.0132 101.987 93.54C102.161 93.8532 102.452 94.6476 102.36 94.9764C102.483 94.7616 103.577 95.9652 103.777 96.216C104.247 96.8064 104.61 97.5216 103.846 98.1048C103.599 98.2944 104.221 99.4728 103.901 99.7632L103.49 99.876C103.237 100.042 103.225 100.352 103.303 100.633C101.545 98.5152 100.47 95.742 100.47 92.7ZM116.614 85.7124C116.708 85.7004 116.494 85.9128 116.494 85.9128C116.531 86.22 116.744 86.388 117.148 86.5452C117.639 86.7336 117.19 87.0912 116.908 87.0072C116.752 86.9604 115.947 86.7012 115.919 87.0372C115.919 87.2376 115.155 87.0384 115.274 86.8272C115.356 86.6844 115.33 86.3628 115.483 86.1528C115.7 85.8468 115.911 86.0136 115.918 86.1912C115.917 86.664 116.366 85.7436 116.614 85.7124Z" fill="white"/>
<path d="M132.822 115.693L127.323 109.876C128.357 108.371 128.969 106.521 128.969 104.522C128.969 99.4922 125.1 95.4 120.345 95.4C115.591 95.4 111.723 99.4922 111.723 104.522C111.723 109.552 115.591 113.644 120.345 113.644C122.148 113.644 123.822 113.056 125.208 112.052L130.736 117.9L132.822 115.693V115.693ZM114.252 104.522C114.252 100.967 116.986 98.0747 120.346 98.0747C123.706 98.0747 126.44 100.967 126.44 104.522C126.44 108.077 123.706 110.969 120.346 110.969C116.985 110.969 114.252 108.077 114.252 104.522V104.522Z" fill="#E53E3E"/>
</svg>
